<svg width="103" height="30" fill="none" viewBox="0 0 103 30"><path d="M52.3714 17.8059C53.2087 18.8385 53.6691 20.1362 53.6552 21.4617C53.6691 22.578 53.3621 23.6804 52.7482 24.6152C52.1063 25.592 51.1854 26.3594 50.1249 26.8338C48.8691 27.392 47.5017 27.671 46.1342 27.6431H36.9668V4.68965H45.7017C47.0831 4.64779 48.4645 4.92686 49.7342 5.485C50.7668 5.93151 51.6459 6.67105 52.2598 7.60593C52.8319 8.49896 53.1249 9.53151 53.111 10.592C53.1528 11.778 52.7761 12.9501 52.0645 13.885C51.3249 14.792 50.3342 15.4617 49.218 15.8385C50.4877 16.0757 51.604 16.7734 52.3714 17.8059ZM40.7203 14.4431H45.3668C46.3994 14.5129 47.4319 14.192 48.2552 13.5501C48.9528 12.9222 49.3435 12.0152 49.2877 11.0804C49.3435 10.1176 48.9668 9.19663 48.2552 8.55477C47.4319 7.89896 46.4133 7.57803 45.3668 7.64779H40.7203V14.4431ZM48.8273 23.7501C50.2924 22.271 50.2784 19.885 48.7994 18.4199C48.7854 18.4059 48.7714 18.392 48.7575 18.392C47.8924 17.6804 46.804 17.3176 45.6877 17.3734H40.7342V24.699H45.7994C46.8877 24.7548 47.9621 24.4059 48.7994 23.7222L48.8273 23.7501Z" fill="white"></path><path d="M74.2103 9.44727V27.6287H70.4428V25.4798C69.8289 26.2473 69.0196 26.8612 68.1126 27.238C67.1638 27.6705 66.1172 27.8798 65.0707 27.8798C63.7312 27.9077 62.4196 27.6008 61.2196 26.9868C60.0893 26.3868 59.1545 25.4659 58.5545 24.3496C57.8707 23.0519 57.5359 21.6008 57.5777 20.1356V9.44727H61.3033V19.5775C61.3033 21.1961 61.7079 22.4519 62.5172 23.317C63.3824 24.2101 64.5963 24.6845 65.8521 24.6287C67.1079 24.6845 68.3219 24.2101 69.201 23.317C70.0242 22.4519 70.4428 21.1961 70.4428 19.5775V9.44727H74.2103Z" fill="white"></path><path d="M81.8668 3.19629V27.6149H78.1133V3.19629H81.8668Z" fill="white"></path><path d="M85.9556 6.33558C85.0067 5.4007 85.0067 3.86581 85.9416 2.93093C86.4021 2.47046 87.03 2.2193 87.6719 2.2193C88.2998 2.20535 88.9137 2.45651 89.3463 2.91698C90.2672 3.87977 90.2672 5.38674 89.3463 6.34953C88.9137 6.81 88.2998 7.06116 87.6719 7.04721C87.03 7.04721 86.416 6.79605 85.9556 6.33558ZM89.4998 9.44721V27.6286H85.7323V9.44721H89.4998Z" fill="white"></path><path d="M99.3532 10.0493C100.316 9.43533 101.46 9.1144 102.604 9.1423V13.0353H101.628C100.149 13.0353 99.0323 13.4121 98.2788 14.1516C97.5253 14.8911 97.1486 16.2028 97.1346 18.0446V27.6167H93.3672V9.44928H97.1346V12.6028C97.637 11.5702 98.4044 10.6911 99.3532 10.0493Z" fill="white"></path><path d="M6.28172 0H23.7183C27.1922 0 30 2.81726 30 6.28173V23.7183C30 27.1923 27.1827 30 23.7183 30H6.28172C2.80774 30 0 27.1827 0 23.7183V6.28173C0 2.81726 2.81726 0 6.28172 0Z" fill="white"></path><path d="M18.4358 16.5614C18.0837 16.5614 17.7981 16.2759 17.8077 15.9237C17.8077 14.8863 17.8077 11.774 17.7696 10.8698C17.6839 8.39515 15.6281 6.45353 12.9822 6.35835C10.3838 6.27269 8.11858 8.21432 8.03292 10.6128C7.98533 11.8977 7.95677 13.2492 7.94726 14.9243C8.22327 14.9243 8.49929 14.9243 8.76578 14.9243C9.03228 14.9243 9.29878 14.9243 9.54624 14.9243H12.7252C13.0773 14.9529 13.3438 15.2575 13.3153 15.6096C13.2962 15.9237 13.0393 16.1807 12.7252 16.1997H9.56528C9.31781 16.1997 9.03228 16.1997 8.74675 16.1997C8.46121 16.1997 8.11858 16.1997 7.81401 16.1997H7.37619H7.3286C7.15728 16.2092 6.98596 16.1426 6.86223 16.0189C6.7385 15.8952 6.67188 15.7334 6.67188 15.562C6.67188 13.5633 6.70995 12.0119 6.76705 10.5462C6.88127 7.46241 9.74611 4.94021 13.0393 5.06394C16.3324 5.18767 18.9498 7.65277 19.0545 10.8031C19.0926 11.8025 19.1021 15.01 19.0926 15.9142C19.1021 16.2663 18.8165 16.5614 18.4644 16.5709C18.4549 16.5614 18.4453 16.5614 18.4358 16.5614Z" fill="#0C2340"></path><path d="M16.9717 24.9261H7.16837C6.81621 24.8975 6.54972 24.5929 6.57827 24.2408C6.5973 23.9267 6.85428 23.6697 7.16837 23.6507H19.2369C21.5687 23.6316 23.1963 22.6132 24.0529 20.6811C24.9095 18.749 24.6049 16.9502 23.1677 15.3607C22.4825 14.5707 21.5307 14.0473 20.4932 13.8855C20.1506 13.8283 19.9127 13.5047 19.9602 13.1621C20.0078 12.8195 20.341 12.5815 20.6836 12.6291C22.0066 12.8385 23.2153 13.4952 24.1005 14.5041C25.8803 16.4743 26.2705 18.7871 25.214 21.1951C24.1576 23.6031 22.0827 24.8975 19.2369 24.9261H16.9717Z" fill="#0C2340"></path><path d="M12.8675 19.1974H7.03308C6.68092 19.226 6.37635 18.9595 6.3478 18.6073C6.31925 18.2551 6.58574 17.9506 6.9379 17.922C6.96645 17.922 7.00453 17.922 7.03308 17.922H12.8675C13.2196 17.8935 13.5242 18.16 13.5527 18.5121C13.5813 18.8643 13.3148 19.1688 12.9626 19.1974C12.9246 19.2069 12.896 19.2069 12.8675 19.1974Z" fill="#0C2340"></path><path d="M13.0123 21.8135H7.16837C6.81621 21.7849 6.54972 21.4803 6.57827 21.1282C6.5973 20.8141 6.85428 20.5571 7.16837 20.5381H13.0123C13.3644 20.5666 13.6309 20.8712 13.6024 21.2234C13.5738 21.5375 13.3264 21.7944 13.0123 21.8135Z" fill="#0C2340"></path></svg>